<svg xmlns="http://www.w3.org/2000/svg" width="96" height="21" fill="none"><path fill="#000" d="M0 .056h14.485c-.605.465-1.107.814-1.558 1.23-1.492 1.378-2.39 3.116-3.045 4.995a.713.713 0 0 1-.831.552c-.659-.047-3.268-.106-3.805-.01a.68.68 0 0 1-.44-.053.45.45 0 0 1-.15-.14C3.13 4.462 1.593 2.304 0 .056"/><path fill="#25CA2A" d="M19.184 15.53c-.276 0-.455-.044-.324-.37.51-1.267 1.014-2.532 1.971-3.559 1.913-2.057 4.319-2.662 7.019-2.448.348.026.323.215.219.457q-1.18 2.737-2.351 5.477c-.143.333-.348.484-.739.477-.946-.029-4.81-.042-5.795-.034"/><path fill="#000" d="M14.44 20.113c-1.614-2.275-3.171-4.478-4.737-6.668a.46.46 0 0 1-.053-.5c1.134-2.685 2-5.49 3.357-8.07C14.58 1.877 17.23.26 20.569.104c3.72-.176 7.454-.07 11.183-.1.484 0 .41.18.272.498-.717 1.641-1.42 3.286-2.127 4.93-.056.129-.121.256-.17.387-.411 1.035-.41 1.04-1.544 1.035-1.591 0-3.186-.053-4.727.46-1.647.547-3.035 1.378-4.126 2.542-.874.927-1.317 1.806-1.815 2.871a82 82 0 0 0-3.074 7.385M40.068 15.056V5.178h7.1v1.598H41.94v2.65h4.71v1.598h-4.71v4.032zm8.689-8.74v-1.67h1.757v1.67zm0 8.74V7.482h1.757v7.574zm3.11 0v-.82l3.83-5.314h-3.586v-1.44h6.15v.806l-3.846 5.328h4.004v1.44zm9.99.173q-.705 0-1.109-.273a1.6 1.6 0 0 1-.576-.72 2.7 2.7 0 0 1-.158-.908V8.922h-.907v-1.44h.95l.317-2.117h1.397v2.117h1.31v1.44h-1.31v4.233q0 .302.158.476.159.158.475.158h.677V15a2 2 0 0 1-.36.1 3 3 0 0 1-.432.087 2.4 2.4 0 0 1-.432.043m2.599-8.913v-1.67h1.757v1.67zm0 8.74V7.482h1.757v7.574zm7.07.173q-1.239 0-2.074-.417a2.77 2.77 0 0 1-1.253-1.31q-.418-.88-.418-2.233 0-1.368.418-2.232a2.7 2.7 0 0 1 1.253-1.296q.836-.432 2.073-.432 1.254 0 2.074.432.835.418 1.253 1.296.417.864.417 2.232 0 1.353-.417 2.232a2.77 2.77 0 0 1-1.253 1.31q-.82.418-2.074.418m0-1.44q.69 0 1.108-.26.432-.272.62-.806.201-.547.201-1.353v-.202q0-.806-.202-1.339-.186-.548-.619-.806-.417-.274-1.109-.274-.69 0-1.123.274-.417.258-.619.806-.187.533-.187 1.34v.2q0 .808.187 1.354.2.533.62.807.431.26 1.122.26m5.308 1.267V7.482h1.469l.144 1.008h.1q.26-.345.606-.605.36-.273.806-.417a3.1 3.1 0 0 1 1.008-.159q.72 0 1.267.26.562.258.879.834t.316 1.541v5.112h-1.77v-4.795q0-.404-.102-.662a.9.9 0 0 0-.273-.432.96.96 0 0 0-.432-.245 2.2 2.2 0 0 0-.576-.072q-.476 0-.864.23-.375.23-.605.634-.216.403-.216.936v4.406zm10.426.173q-.318 0-.735-.086a2.6 2.6 0 0 1-.792-.288 1.7 1.7 0 0 1-.62-.634q-.244-.432-.244-1.123 0-.778.346-1.282.345-.518.965-.806.633-.302 1.497-.418.879-.13 1.915-.13v-.618q0-.332-.1-.59a.76.76 0 0 0-.375-.404q-.26-.159-.792-.159t-.835.13q-.302.13-.418.317a.73.73 0 0 0-.115.389v.201h-1.7a1 1 0 0 1-.014-.144v-.172q0-.649.39-1.124.387-.476 1.08-.72.69-.259 1.598-.259 1.035 0 1.699.288.677.289 1.008.82.33.534.331 1.297v3.571q0 .273.158.389.159.115.346.115h.46V15a4 4 0 0 1-.417.13 2.3 2.3 0 0 1-.677.086q-.375 0-.676-.13a1.3 1.3 0 0 1-.49-.346 1.4 1.4 0 0 1-.288-.547h-.086q-.245.303-.59.547-.332.231-.793.36-.446.13-1.037.13m.532-1.44q.433 0 .763-.13.346-.129.562-.36.23-.23.346-.561.13-.33.13-.72v-.346q-.793 0-1.47.101-.662.1-1.065.375-.39.273-.389.777 0 .26.115.46a.9.9 0 0 0 .375.303q.259.1.633.101m5.597 1.267V4.646h1.757v10.41z"/></svg>