<svg xmlns="http://www.w3.org/2000/svg" width="155" height="26" fill="none"><path fill="#000" d="M16 .07h18.107c-.757.581-1.384 1.017-1.949 1.537-1.865 1.723-2.986 3.895-3.806 6.245a.89.89 0 0 1-1.039.69c-.823-.06-4.084-.134-4.755-.014a.85.85 0 0 1-.55-.065.6.6 0 0 1-.189-.176C19.913 5.578 17.992 2.88 16 .07"/><path fill="#25CA2A" d="M39.98 19.413c-.345 0-.569-.056-.405-.463.636-1.584 1.267-3.164 2.464-4.449 2.391-2.571 5.398-3.328 8.773-3.06.436.033.404.27.274.572q-1.473 3.422-2.94 6.846c-.178.416-.433.605-.922.596-1.183-.036-6.013-.053-7.244-.042"/><path fill="#000" d="M34.051 25.14c-2.018-2.843-3.965-5.596-5.922-8.334a.58.58 0 0 1-.067-.625c1.418-3.357 2.5-6.863 4.196-10.088C34.226 2.348 37.539.327 41.712.13 46.361-.09 51.03.044 55.69.006c.605 0 .513.225.34.623-.897 2.052-1.774 4.107-2.659 6.163-.07.16-.151.32-.212.483-.514 1.294-.513 1.299-1.93 1.294-1.99 0-3.983-.066-5.908.575-2.06.684-3.794 1.722-5.159 3.177-1.092 1.159-1.646 2.258-2.269 3.59-1.053 2.199-2.416 5.301-3.842 9.23M65.835 18.57V6.222h8.874V8.22h-6.534v3.312h5.886v1.998h-5.886v5.04zM76.696 7.644V5.556h2.196v2.088zm0 10.926V9.102h2.196v9.468zm3.887 0v-1.026l4.788-6.642H80.89v-1.8h7.686v1.008l-4.806 6.66h5.004v1.8zm12.489.216q-.882 0-1.386-.342a2 2 0 0 1-.72-.9 3.4 3.4 0 0 1-.198-1.134v-5.508h-1.135v-1.8h1.189l.395-2.646h1.746v2.646h1.639v1.8h-1.639v5.292q0 .378.199.594.198.198.593.198h.847v1.512q-.18.072-.45.126a3.6 3.6 0 0 1-.54.108 3 3 0 0 1-.54.054M96.32 7.644V5.556h2.196v2.088zm0 10.926V9.102h2.196v9.468zm8.837.216q-1.548 0-2.592-.522a3.46 3.46 0 0 1-1.566-1.638q-.522-1.098-.522-2.79 0-1.71.522-2.79.522-1.098 1.566-1.62 1.044-.54 2.592-.54 1.566 0 2.592.54 1.044.522 1.566 1.62.522 1.08.522 2.79 0 1.692-.522 2.79a3.46 3.46 0 0 1-1.566 1.638q-1.026.522-2.592.522m0-1.8q.864 0 1.386-.324.54-.342.774-1.008.252-.684.252-1.692v-.252q0-1.008-.252-1.674-.234-.684-.774-1.008-.522-.342-1.386-.342t-1.404.342q-.522.324-.774 1.008-.234.666-.234 1.674v.252q0 1.008.234 1.692.252.666.774 1.008.54.324 1.404.324m6.636 1.584V9.102h1.836l.18 1.26h.126q.324-.432.756-.756.45-.342 1.008-.522a3.9 3.9 0 0 1 1.26-.198q.9 0 1.584.324.702.324 1.098 1.044t.396 1.926v6.39h-2.214v-5.994q0-.504-.126-.828a1.13 1.13 0 0 0-.342-.54 1.2 1.2 0 0 0-.54-.306 2.7 2.7 0 0 0-.72-.09q-.594 0-1.08.288a2.2 2.2 0 0 0-.756.792 2.44 2.44 0 0 0-.27 1.17v5.508zm13.031.216q-.396 0-.918-.108a3.2 3.2 0 0 1-.99-.36 2.13 2.13 0 0 1-.774-.792q-.306-.54-.306-1.404 0-.972.432-1.602.432-.648 1.206-1.008.792-.378 1.872-.522 1.098-.162 2.394-.162v-.774q0-.414-.126-.738a.95.95 0 0 0-.468-.504q-.324-.198-.99-.198t-1.044.162-.522.396a.9.9 0 0 0-.144.486v.252h-2.124a1 1 0 0 1-.018-.18v-.216q0-.81.486-1.404t1.35-.9q.864-.324 1.998-.324 1.296 0 2.124.36.846.36 1.26 1.026t.414 1.62v4.464q0 .342.198.486a.72.72 0 0 0 .432.144h.576v1.512q-.18.072-.522.162-.342.108-.846.108-.468 0-.846-.162a1.6 1.6 0 0 1-.612-.432 1.7 1.7 0 0 1-.36-.684h-.108q-.306.378-.738.684a3.3 3.3 0 0 1-.99.45 4.7 4.7 0 0 1-1.296.162m.666-1.8q.54 0 .954-.162.432-.162.702-.45.288-.288.432-.702.162-.414.162-.9v-.432q-.99 0-1.836.126-.828.126-1.332.468-.486.342-.486.972 0 .324.144.576.162.234.468.378.324.126.792.126m6.996 1.584V5.556h2.196V18.57z"/></svg>