<svg xmlns="http://www.w3.org/2000/svg" width="167" height="37" fill="none"><path fill="#000" d="M0 .221h26.247c-1.097.84-2.007 1.469-2.825 2.22-2.703 2.489-4.328 5.626-5.516 9.02a1.287 1.287 0 0 1-1.507.996c-1.193-.086-5.92-.193-6.894-.02a1.23 1.23 0 0 1-.796-.094.8.8 0 0 1-.274-.254C5.673 8.176 2.888 4.28 0 .221"/><path fill="#14D80F" d="M34.76 28.16c-.5 0-.824-.081-.587-.669.923-2.288 1.837-4.57 3.572-6.426 3.466-3.714 7.826-4.806 12.717-4.42.632.049.586.39.397.826a4947 4947 0 0 0-4.26 9.889c-.259.6-.63.874-1.338.86-1.714-.052-8.716-.076-10.5-.06"/><path fill="#000" d="M25.771 36.443c-2.925-4.122-5.747-8.113-8.584-12.082a.84.84 0 0 1-.097-.905c2.055-4.866 3.625-9.949 6.083-14.624C26.023 3.403 30.825.474 36.875.19c6.74-.318 13.507-.125 20.263-.18.877 0 .743.327.493.903-1.3 2.974-2.572 5.953-3.855 8.933-.1.233-.219.463-.307.7-.745 1.877-.743 1.883-2.797 1.877-2.884 0-5.774-.097-8.565.833-2.984.991-5.5 2.495-7.477 4.605-1.583 1.68-2.386 3.273-3.29 5.203-1.525 3.188-3.501 7.685-5.569 13.38M71.609 26.221V9.757H83.44v2.664h-8.712v4.416h7.848v2.664h-7.848v6.72zm14.86-14.568V8.87h2.929v2.784zm0 14.568V13.597h2.929v12.624zm5.564 0v-1.368l6.383-8.856h-5.975v-2.4h10.248v1.344l-6.408 8.88h6.672v2.4zm17.03.288q-1.176 0-1.848-.456a2.7 2.7 0 0 1-.96-1.2q-.264-.744-.264-1.512v-7.344h-1.512v-2.4h1.584l.528-3.528h2.328v3.528h2.184v2.4h-2.184v7.056q0 .504.264.792.264.264.792.264h1.128v2.016q-.24.096-.6.168a5 5 0 0 1-.72.144 4 4 0 0 1-.72.072m4.711-14.856V8.87h2.928v2.784zm0 14.568V13.597h2.928v12.624zm12.163.288q-2.064 0-3.456-.696-1.392-.72-2.088-2.184t-.696-3.72q0-2.28.696-3.72.696-1.464 2.088-2.16 1.392-.72 3.456-.72 2.088 0 3.456.72 1.392.696 2.088 2.16.696 1.44.696 3.72 0 2.256-.696 3.72t-2.088 2.184q-1.368.696-3.456.696m0-2.4q1.152 0 1.848-.432.72-.456 1.032-1.344.336-.912.336-2.256v-.336q0-1.344-.336-2.232-.312-.912-1.032-1.344-.696-.456-1.848-.456t-1.872.456q-.696.432-1.032 1.344-.312.888-.312 2.232v.336q0 1.344.312 2.256.336.888 1.032 1.344.72.432 1.872.432m9.228 2.112V13.597h2.448l.24 1.68h.168q.432-.576 1.008-1.008a4.5 4.5 0 0 1 1.344-.696 5.1 5.1 0 0 1 1.68-.264q1.2 0 2.112.432.936.432 1.464 1.392t.528 2.568v8.52h-2.952V18.23q0-.672-.168-1.104a1.5 1.5 0 0 0-.456-.72 1.6 1.6 0 0 0-.72-.408 3.6 3.6 0 0 0-.96-.12q-.792 0-1.44.384a2.9 2.9 0 0 0-1.008 1.056q-.36.672-.36 1.56v7.344zm17.756.288q-.528 0-1.224-.144a4.3 4.3 0 0 1-1.32-.48q-.624-.36-1.032-1.056-.408-.72-.408-1.872 0-1.296.576-2.136.576-.864 1.608-1.344 1.056-.504 2.496-.696a22 22 0 0 1 3.192-.216v-1.032a2.7 2.7 0 0 0-.168-.984 1.27 1.27 0 0 0-.624-.672q-.432-.264-1.32-.264t-1.392.216-.696.528a1.2 1.2 0 0 0-.192.648v.336h-2.832a1.2 1.2 0 0 1-.024-.24v-.288q0-1.08.648-1.872t1.8-1.2q1.152-.432 2.664-.432 1.728 0 2.832.48 1.128.48 1.68 1.368t.552 2.16v5.952q0 .456.264.648a.96.96 0 0 0 .576.192h.768v2.016q-.24.096-.696.216-.456.144-1.128.144-.624 0-1.128-.216a2.1 2.1 0 0 1-.816-.576 2.3 2.3 0 0 1-.48-.912h-.144q-.408.504-.984.912a4.4 4.4 0 0 1-1.32.6q-.744.216-1.728.216m.888-2.4q.72 0 1.272-.216.576-.216.936-.6.384-.384.576-.936.216-.552.216-1.2v-.576q-1.32 0-2.448.168-1.104.168-1.776.624-.648.456-.648 1.296 0 .432.192.768.216.312.624.504.432.168 1.056.168m9.708 2.112V8.87h2.928v17.352z"/></svg>