<svg width="148" height="149" viewBox="0 0 148 149" fill="none" xmlns="http://www.w3.org/2000/svg">
<path d="M103.905 0V27.2409H120.638V43.9746H147.879V0H103.905Z" fill="#8C3ADD"/>
<path d="M43.9746 148.268V121.027H27.2409V104.294H3.43323e-05V148.268H43.9746Z" fill="#8C3ADD"/>
<path d="M46.3095 0H0V44.3637C2.17927 75.8075 25.814 85.7439 37.3589 86.7817H103.515C117.525 88.961 120.768 99.3644 120.638 104.294V120.638H103.515C92.9303 120.638 88.2086 109.742 87.1708 104.294H60.7083C60.7083 135.737 87.1708 146.452 100.402 147.879H147.879V96.5106C144.766 70.4371 120.249 60.3191 108.964 60.3191H43.5854C31.4438 60.3191 27.63 49.6822 27.2409 44.3637V27.2409H43.5854C56.0384 28.4862 59.4111 36.5806 59.5408 40.4722V44.3637H87.1708C85.9255 9.4954 59.4111 0.259437 46.3095 0Z" fill="#8C3ADD"/>
</svg>
