<svg width="680" height="89" viewBox="0 0 680 89" fill="none" xmlns="http://www.w3.org/2000/svg">
<path d="M61.8575 0V16.2173H71.8196V26.1793H88.0368V0H61.8575Z" fill="#8C3ADD"/>
<path d="M26.1793 88.2682V72.051H16.2173V62.089H2.28882e-05V88.2682H26.1793Z" fill="#8C3ADD"/>
<path d="M27.5695 0H0.00012207V26.411C1.2975 45.1303 15.3679 51.0458 22.2409 51.6636H61.6257C69.966 52.9609 71.8967 59.1544 71.8194 62.089V71.8193H61.6257C55.3242 71.8193 52.5132 65.3324 51.8954 62.089H36.1415C36.1415 80.8083 51.8954 87.1871 59.7723 88.0366H88.0367V57.4554C86.1833 41.9332 71.5878 35.9097 64.8692 35.9097H25.9477C18.7195 35.9097 16.4491 29.5772 16.2174 26.411V16.2173H25.9477C33.3614 16.9586 35.3692 21.7775 35.4464 24.0942V26.411H51.8954C51.154 5.65287 35.3692 0.15445 27.5695 0Z" fill="#8C3ADD"/>
<path d="M680 22.135V78.2331H666.249V64.8712L669.88 64.0982C668.633 67.411 666.873 70.2454 664.599 72.6012C662.399 74.9571 659.832 76.7976 656.899 78.1227C654.039 79.3742 650.848 80 647.328 80C643.441 80 639.848 79.1534 636.548 77.4601C633.247 75.6933 630.607 73.1166 628.627 69.7301C626.72 66.2699 625.767 62.0368 625.767 57.0307V22.135H640.618V52.2822C640.618 55.3742 641.021 58.0246 641.828 60.2331C642.708 62.3681 643.955 63.9877 645.568 65.092C647.182 66.1963 649.125 66.7485 651.398 66.7485C653.159 66.7485 655.102 66.2699 657.229 65.3129C659.429 64.3558 661.299 62.6258 662.839 60.1227C664.379 57.6196 665.149 54.0491 665.149 49.4111V22.135H680Z" fill="#080615"/>
<path d="M567.876 78.2331V22.135H581.627V35.4969L577.997 36.2699C579.317 32.957 581.077 30.1227 583.277 27.7669C585.477 25.411 588.044 23.6074 590.978 22.3558C593.911 21.0307 597.101 20.3681 600.548 20.3681C604.508 20.3681 608.102 21.2515 611.329 23.0184C614.629 24.7117 617.232 27.2515 619.139 30.638C621.119 34.0245 622.109 38.2577 622.109 43.3374V78.2331H607.258V48.0859C607.258 44.9202 606.818 42.2699 605.938 40.135C605.132 38 603.922 36.3804 602.308 35.2761C600.695 34.1718 598.751 33.6196 596.478 33.6196C594.718 33.6196 592.774 34.0982 590.648 35.0552C588.521 36.0123 586.651 37.7423 585.037 40.2454C583.497 42.6748 582.727 46.2454 582.727 50.957V78.2331H567.876Z" fill="#080615"/>
<path d="M536.277 80C530.41 80 525.239 78.7484 520.766 76.2454C516.366 73.7423 512.919 70.2454 510.425 65.7546C507.932 61.2638 506.685 56.0736 506.685 50.184C506.685 44.2945 507.895 39.1043 510.315 34.6135C512.809 30.1227 516.219 26.6258 520.546 24.1227C524.873 21.6196 529.896 20.3681 535.617 20.3681C541.264 20.3681 546.177 21.6564 550.358 24.2331C554.538 26.8098 557.801 30.4172 560.148 35.0552C562.495 39.6932 563.668 45.1043 563.668 51.2883V53.9386L562.018 55.5951H513.285V43.7791H557.618L549.367 46.7607C549.367 44.0368 548.744 41.6442 547.497 39.5828C546.324 37.5215 544.711 35.9386 542.657 34.8343C540.677 33.6564 538.44 33.0675 535.947 33.0675C533.16 33.0675 530.666 33.6932 528.466 34.9448C526.266 36.1227 524.543 37.7791 523.296 39.9141C522.123 41.9755 521.536 44.3681 521.536 47.092V52.9448C521.536 55.5215 522.196 57.9141 523.516 60.1227C524.909 62.2577 526.706 63.9877 528.906 65.3129C531.18 66.638 533.637 67.3006 536.277 67.3006C538.623 67.3006 540.897 66.6012 543.097 65.2024C545.297 63.8037 547.021 61.9264 548.267 59.5705H549.587L561.468 64.5399C559.195 69.546 555.858 73.3742 551.458 76.0245C547.131 78.6748 542.07 80 536.277 80Z" fill="#080615"/>
<path d="M411.461 78.2331V22.135H425.212V34.5031L423.341 32.4049C424.735 29.8282 426.348 27.6564 428.182 25.8896C430.015 24.1227 432.179 22.7607 434.672 21.8037C437.239 20.8466 440.209 20.3681 443.583 20.3681C448.056 20.3681 452.127 21.6196 455.793 24.1227C459.46 26.5521 461.99 30.2331 463.384 35.1656L459.094 34.8343C460.487 31.7423 462.32 29.1288 464.594 26.9939C466.941 24.8589 469.581 23.2393 472.514 22.135C475.521 20.9571 478.638 20.3681 481.865 20.3681C485.605 20.3681 489.052 21.2515 492.206 23.0184C495.432 24.7117 497.999 27.2515 499.906 30.638C501.886 34.0245 502.876 38.2577 502.876 43.3374V78.2331H488.025V46.9816C488.025 44.1104 487.585 41.681 486.705 39.6932C485.898 37.7055 484.725 36.1963 483.185 35.1656C481.718 34.135 479.921 33.6196 477.795 33.6196C476.108 33.6196 474.238 34.0982 472.184 35.0552C470.131 36.0123 468.334 37.7423 466.794 40.2454C465.327 42.6748 464.594 46.2454 464.594 50.957V78.2331H449.743V46.9816C449.743 44.1104 449.303 41.681 448.423 39.6932C447.616 37.7055 446.443 36.1963 444.903 35.1656C443.436 34.135 441.639 33.6196 439.512 33.6196C437.826 33.6196 435.956 34.0982 433.902 35.0552C431.849 36.0123 430.052 37.7423 428.512 40.2454C427.045 42.6748 426.312 46.2454 426.312 50.957V78.2331H411.461Z" fill="#080615"/>
<path d="M395.909 78.2331C390.115 78.2331 385.495 76.4294 382.048 72.8221C378.674 69.1411 376.987 64.1718 376.987 57.9141V8H391.838V56.2577C391.838 58.9816 392.608 61.1534 394.148 62.773C395.762 64.319 397.925 65.092 400.639 65.092H405.919L406.469 66.3067V78.2331H395.909ZM367.527 35.2761V22.135H406.469V35.2761H367.527Z" fill="#080615"/>
<path d="M327.237 78.2331V22.135H340.988V35.4969L337.358 36.27C339.118 31.8528 341.794 28.3927 345.388 25.8896C348.982 23.3865 353.125 22.135 357.819 22.135H362.989V35.2761H355.619C352.832 35.2761 350.412 35.865 348.358 37.043C346.378 38.2209 344.838 39.9509 343.738 42.2331C342.638 44.4417 342.088 47.092 342.088 50.1841V78.2331H327.237Z" fill="#080615"/>
<path d="M290.894 80C287.08 80 283.67 79.2638 280.663 77.7914C277.729 76.319 275.419 74.2576 273.733 71.6073C272.046 68.957 271.202 65.9386 271.202 62.5521C271.202 57.1043 273.036 52.7975 276.703 49.6319C280.443 46.3926 285.87 44.4785 292.984 43.8896L314.655 42.0123V53.9386L294.854 55.5951C291.7 55.8896 289.464 56.5521 288.143 57.5828C286.897 58.6135 286.273 59.9386 286.273 61.5583C286.273 63.1779 287.043 64.503 288.583 65.5337C290.124 66.4908 292.067 66.9693 294.414 66.9693C296.981 66.9693 299.291 66.3067 301.344 64.9816C303.471 63.6564 305.158 61.9632 306.405 59.9018C307.651 57.7669 308.275 55.5215 308.275 53.1656V44C308.275 40.8343 307.175 38.2208 304.974 36.1595C302.774 34.0982 299.987 33.0675 296.614 33.0675C293.46 33.0675 290.93 33.8773 289.023 35.4969C287.117 37.0429 285.98 38.773 285.613 40.6871H284.403L271.862 38.0368C272.963 33.0307 275.676 28.8344 280.003 25.4478C284.403 22.0613 289.94 20.3681 296.614 20.3681C304.681 20.3681 311.025 22.6503 315.645 27.2147C320.339 31.7791 322.685 38.2209 322.685 46.5399V78.2331H309.815V61.8896H315.205C314.325 65.1288 312.712 68.1472 310.365 70.9448C308.091 73.6687 305.304 75.8773 302.004 77.5705C298.704 79.1902 295 80 290.894 80Z" fill="#080615"/>
<path d="M175.978 78.2331V22.135H189.729V34.5031L187.859 32.4049C189.252 29.8282 190.866 27.6564 192.699 25.8896C194.533 24.1227 196.696 22.7607 199.189 21.8037C201.756 20.8466 204.726 20.3681 208.1 20.3681C212.574 20.3681 216.644 21.6196 220.311 24.1227C223.978 26.5521 226.508 30.2331 227.901 35.1656L223.611 34.8343C225.004 31.7423 226.838 29.1288 229.111 26.9939C231.458 24.8589 234.098 23.2393 237.032 22.135C240.039 20.9571 243.155 20.3681 246.382 20.3681C250.122 20.3681 253.569 21.2515 256.723 23.0184C259.95 24.7117 262.516 27.2515 264.423 30.638C266.403 34.0245 267.393 38.2577 267.393 43.3374V78.2331H252.543V46.9816C252.543 44.1104 252.103 41.681 251.222 39.6932C250.416 37.7055 249.242 36.1963 247.702 35.1656C246.236 34.135 244.439 33.6196 242.312 33.6196C240.625 33.6196 238.755 34.0982 236.702 35.0552C234.648 36.0123 232.851 37.7423 231.311 40.2454C229.845 42.6748 229.111 46.2454 229.111 50.957V78.2331H214.26V46.9816C214.26 44.1104 213.82 41.681 212.94 39.6932C212.134 37.7055 210.96 36.1963 209.42 35.1656C207.953 34.135 206.157 33.6196 204.03 33.6196C202.343 33.6196 200.473 34.0982 198.419 35.0552C196.366 36.0123 194.569 37.7423 193.029 40.2454C191.562 42.6748 190.829 46.2454 190.829 50.957V78.2331H175.978Z" fill="#080615"/>
<path d="M148.862 80C142.628 80 137.274 78.5644 132.801 75.6932C128.4 72.7484 125.467 68.773 124 63.7668L137.531 60.3435L138.851 60.6748C139.438 62.7362 140.684 64.3558 142.591 65.5337C144.571 66.7116 146.845 67.3006 149.412 67.3006C151.905 67.3006 153.995 66.8221 155.682 65.865C157.369 64.8343 158.212 63.5092 158.212 61.8896C158.212 60.4908 157.699 59.3865 156.672 58.5767C155.645 57.7669 154.105 57.1411 152.052 56.6994L141.491 54.3804C136.284 53.2024 132.251 51.2147 129.39 48.4172C126.604 45.546 125.21 42.0491 125.21 37.9264C125.21 34.3926 126.2 31.3374 128.18 28.7607C130.16 26.1104 132.874 24.0491 136.321 22.5767C139.841 21.1043 143.801 20.3681 148.202 20.3681C154.142 20.3681 159.166 21.8405 163.272 24.7853C167.453 27.6564 170.203 31.6687 171.523 36.8221L158.982 39.5828L157.772 39.362C157.259 37.5215 156.012 36.0123 154.032 34.8343C152.125 33.6564 149.962 33.0675 147.541 33.0675C145.341 33.0675 143.471 33.4724 141.931 34.2822C140.464 35.092 139.731 36.2331 139.731 37.7055C139.731 38.6626 140.134 39.5828 140.941 40.4662C141.821 41.2761 143.141 41.865 144.901 42.2331L155.462 44.6626C161.109 45.9877 165.399 47.9386 168.333 50.5153C171.266 53.0184 172.733 56.5153 172.733 61.0061C172.733 64.8343 171.706 68.184 169.653 71.0552C167.599 73.9264 164.776 76.1349 161.182 77.681C157.589 79.227 153.482 80 148.862 80Z" fill="#080615"/>
</svg>
