<svg width="662" height="149" viewBox="0 0 662 149" fill="none" xmlns="http://www.w3.org/2000/svg">
<path d="M103.905 0V27.2409H120.638V43.9746H147.879V0H103.905Z" fill="white"/>
<path d="M43.9746 148.268V121.027H27.2409V104.294H3.43323e-05V148.268H43.9746Z" fill="white"/>
<path d="M46.3095 0H0V44.3637C2.17927 75.8075 25.814 85.7439 37.3589 86.7817H103.515C117.525 88.961 120.768 99.3644 120.638 104.294V120.638H103.515C92.9303 120.638 88.2086 109.742 87.1708 104.294H60.7083C60.7083 135.737 87.1708 146.452 100.402 147.879H147.879V96.5106C144.766 70.4371 120.249 60.3191 108.964 60.3191H43.5854C31.4438 60.3191 27.63 49.6822 27.2409 44.3637V27.2409H43.5854C56.0384 28.4862 59.4111 36.5806 59.5408 40.4722V44.3637H87.1708C85.9255 9.4954 59.4111 0.259437 46.3095 0Z" fill="white"/>
<path d="M205.665 114.862C201.115 114.862 197.169 114.17 193.826 112.787C190.484 111.403 187.93 108.959 186.166 105.455C184.495 101.951 183.659 97.0167 183.659 90.6533V85.95C185.888 85.95 188.163 85.95 190.484 85.95C192.805 85.95 195.08 85.95 197.308 85.95V91.76C197.308 95.6333 197.68 98.6306 198.423 100.752C199.166 102.873 200.187 104.348 201.487 105.178C202.787 105.916 204.272 106.285 205.944 106.285C208.636 106.285 210.772 105.409 212.351 103.657C214.022 101.812 214.858 98.4 214.858 93.42C214.858 89.7311 214.3 86.9644 213.186 85.12C212.072 83.2756 210.308 81.8 207.894 80.6933C205.572 79.4944 202.555 78.1572 198.841 76.6817C195.776 75.2983 193.13 73.6844 190.902 71.84C188.673 69.9956 187.002 67.6439 185.888 64.785C184.773 61.9261 184.216 58.3756 184.216 54.1333C184.216 48.9689 184.866 44.7728 186.166 41.545C187.559 38.225 189.88 35.8272 193.13 34.3517C196.38 32.7839 200.744 32 206.222 32C213.279 32 218.664 33.6139 222.379 36.8417C226.093 39.9772 227.95 44.5883 227.95 50.675V60.22C225.814 60.22 223.632 60.22 221.404 60.22C219.268 60.22 217.086 60.22 214.858 60.22V54.5483C214.858 50.3061 214.161 47.2628 212.768 45.4183C211.468 43.4817 209.333 42.5133 206.362 42.5133C203.297 42.5133 201.069 43.4356 199.676 45.28C198.376 47.0322 197.726 49.845 197.726 53.7183C197.726 57.0383 198.376 59.6206 199.676 61.465C200.976 63.2172 202.647 64.6006 204.69 65.615C206.826 66.6294 209.008 67.5517 211.236 68.3817C215.415 69.9494 218.804 71.5633 221.404 73.2233C224.003 74.8833 225.907 77.0967 227.114 79.8633C228.321 82.63 228.925 86.5494 228.925 91.6217C228.925 97.4317 227.95 102.043 226 105.455C224.143 108.775 221.45 111.173 217.922 112.648C214.486 114.124 210.401 114.862 205.665 114.862Z" fill="white"/>
<path d="M238.923 113.893V45.4183H250.066L251.18 53.3033C252.201 50.6289 253.873 48.4617 256.194 46.8017C258.608 45.0494 261.44 44.1733 264.69 44.1733C269.982 44.1733 273.743 45.28 275.971 47.4933C278.2 49.7067 279.407 52.9344 279.593 57.1767H277.921C278.571 53.4878 280.196 50.3983 282.796 47.9083C285.489 45.4183 288.785 44.1733 292.685 44.1733C298.627 44.1733 302.62 45.6028 304.663 48.4617C306.798 51.2283 307.866 55.4244 307.866 61.05V113.893H294.774V62.4333C294.774 59.1133 294.217 56.8078 293.103 55.5167C292.081 54.2256 290.363 53.58 287.949 53.58C285.814 53.58 284.003 54.1794 282.517 55.3783C281.032 56.485 280.15 57.9606 279.871 59.805V113.893H266.779V61.7417C266.779 58.7906 266.268 56.7156 265.247 55.5167C264.318 54.2256 262.554 53.58 259.954 53.58C257.819 53.58 256.101 54.0872 254.801 55.1017C253.594 56.0239 252.665 57.1767 252.015 58.56V113.893H238.923Z" fill="white"/>
<path d="M331.159 115C328.838 115 326.61 114.677 324.474 114.032C322.431 113.386 320.667 112.049 319.181 110.02C317.789 107.899 317.092 104.671 317.092 100.337V92.175C317.092 87.6561 318.392 84.0594 320.992 81.385C323.685 78.6183 327.677 76.1744 332.97 74.0533C336.034 72.7622 338.448 71.6094 340.212 70.595C342.069 69.5806 343.416 68.3817 344.251 66.9983C345.087 65.615 345.505 63.7244 345.505 61.3267V57.8683C345.505 56.1161 345.134 54.7789 344.391 53.8567C343.741 52.9344 342.859 52.2889 341.744 51.92C340.723 51.4589 339.516 51.2283 338.123 51.2283C335.059 51.2283 333.016 52.1506 331.995 53.995C331.066 55.8394 330.602 58.7906 330.602 62.8483V68.6583H318.764V61.6033C318.764 58.1911 319.228 55.1939 320.156 52.6117C321.085 49.9372 322.942 47.8622 325.727 46.3867C328.513 44.8189 332.645 44.035 338.123 44.035C343.787 44.035 348.058 44.5883 350.937 45.695C353.908 46.8017 355.951 48.5078 357.065 50.8133C358.179 53.0267 358.736 55.8856 358.736 59.39V113.893H345.644V106.008C344.716 108.867 342.859 111.081 340.073 112.648C337.38 114.216 334.409 115 331.159 115ZM336.591 106.285C339.748 106.285 341.977 105.178 343.277 102.965C344.669 100.659 345.366 97.4778 345.366 93.42V74.1917C344.716 75.2983 343.555 76.3128 341.884 77.235C340.212 78.1572 338.587 79.1256 337.009 80.14C334.688 81.5233 332.923 82.9989 331.716 84.5667C330.509 86.0422 329.906 88.1172 329.906 90.7917V97.2933C329.906 99.7833 330.184 101.72 330.741 103.103C331.391 104.394 332.227 105.271 333.248 105.732C334.363 106.101 335.477 106.285 336.591 106.285Z" fill="white"/>
<path d="M369.769 113.893V45.4183H380.911L382.025 53.3033C382.954 50.9978 384.393 49.2917 386.343 48.185C388.293 46.9861 390.289 46.1561 392.332 45.695C395.21 44.6806 398.135 44.4961 401.106 45.1417V55.24C400.828 55.1478 400.131 55.0556 399.017 54.9633C397.903 54.7789 396.649 54.7328 395.257 54.825C393.864 54.9172 392.657 55.24 391.635 55.7933C388.943 56.4389 386.807 57.7761 385.229 59.805C383.65 61.7417 382.861 64.1856 382.861 67.1367V113.893H369.769Z" fill="white"/>
<path d="M425.826 114.308C423.783 114.308 421.787 114.078 419.837 113.617C417.887 113.156 416.169 112.418 414.684 111.403C413.198 110.297 411.991 108.821 411.063 106.977C410.227 105.04 409.809 102.596 409.809 99.645V53.3033H403.402V46.6633L410.923 45.4183L412.873 32.6917H422.901V45.4183H436.69V53.3033H422.901V97.4317C422.901 99.5528 423.319 101.443 424.155 103.103C424.99 104.671 426.801 105.455 429.587 105.455C430.794 105.455 432.14 105.409 433.626 105.317C435.204 105.132 436.226 105.04 436.69 105.04V112.925C436.226 113.017 434.926 113.294 432.79 113.755C430.654 114.124 428.333 114.308 425.826 114.308Z" fill="white"/>
<path d="M445.143 113.893V32.1383H461.578L475.367 90.2383L489.295 32.1383H505.59V113.893H493.752V50.8133L479.963 113.893H470.771L456.982 50.8133V113.893H445.143Z" fill="white"/>
<path d="M538.21 115C533.474 115 529.528 114.493 526.371 113.478C523.307 112.372 520.986 110.297 519.407 107.253C517.921 104.21 517.179 99.645 517.179 93.5583V61.465C517.179 54.825 518.85 50.3061 522.193 47.9083C525.535 45.4183 530.735 44.1733 537.792 44.1733C544.849 44.1733 550.048 45.4183 553.391 47.9083C556.734 50.3061 558.405 54.825 558.405 61.465V79.725H530.271V98.6767C530.271 102.089 530.781 104.487 531.803 105.87C532.917 107.253 535.006 107.945 538.07 107.945C540.856 107.945 542.759 107.299 543.781 106.008C544.802 104.625 545.313 102.181 545.313 98.6767V88.5783H558.405V93.42C558.405 99.4144 557.616 103.979 556.037 107.115C554.552 110.251 552.323 112.372 549.352 113.478C546.381 114.493 542.667 115 538.21 115ZM530.271 73.6383H545.313V60.9117C545.313 57.7761 544.802 55.5167 543.781 54.1333C542.759 52.75 540.763 52.0583 537.792 52.0583C534.913 52.0583 532.917 52.75 531.803 54.1333C530.781 55.5167 530.271 57.7761 530.271 60.9117V73.6383Z" fill="white"/>
<path d="M568.349 113.893V45.4183H579.352L580.606 53.165C581.441 50.3983 583.113 48.185 585.62 46.525C588.22 44.865 591.005 44.035 593.976 44.035C598.526 44.035 601.915 44.865 604.144 46.525C606.465 48.0928 607.997 50.26 608.74 53.0267C609.483 55.7011 609.854 58.7906 609.854 62.295V113.893H596.762V63.2633C596.762 61.9722 596.716 60.7733 596.623 59.6667C596.53 58.4678 596.251 57.4072 595.787 56.485C595.323 55.5628 594.58 54.825 593.559 54.2717C592.537 53.7183 591.052 53.4417 589.102 53.4417C587.523 53.4417 586.177 53.7183 585.063 54.2717C584.041 54.825 583.252 55.5167 582.695 56.3467C582.138 57.0844 581.72 57.8222 581.441 58.56V113.893H568.349Z" fill="white"/>
<path d="M636.171 114.862C631.529 114.862 628.047 114.078 625.725 112.51C623.497 110.942 622.011 108.821 621.268 106.147C620.619 103.38 620.294 100.244 620.294 96.74V45.4183H633.386V95.7717C633.386 97.4317 633.479 98.9994 633.664 100.475C633.943 101.951 634.593 103.196 635.614 104.21C636.728 105.132 638.493 105.593 640.907 105.593C642.671 105.593 644.064 105.317 645.085 104.763C646.106 104.21 646.896 103.564 647.453 102.827C648.01 101.997 648.381 101.213 648.567 100.475V45.4183H661.659V113.893H650.517L649.542 106.008C648.706 108.406 647.128 110.481 644.807 112.233C642.578 113.986 639.7 114.862 636.171 114.862Z" fill="white"/>
</svg>
