<svg xmlns="http://www.w3.org/2000/svg" width="186" height="117" fill="none"><path fill="#fff" d="M83.127 117c-9.376-13.212-18.42-26.003-27.515-38.724a2.69 2.69 0 0 1-.309-2.902C61.888 59.779 66.92 43.489 74.8 28.505c9.136-17.4 24.527-26.79 43.917-27.704 21.603-1.019 43.291-.4 64.944-.576 2.811 0 2.382 1.047 1.581 2.895-4.167 9.53-8.243 19.081-12.355 28.632-.323.745-.702 1.483-.984 2.242-2.389 6.016-2.382 6.037-8.967 6.016-9.242 0-18.505-.31-27.451 2.67-9.565 3.177-17.626 7.998-23.965 14.759-5.074 5.383-7.646 10.492-10.542 16.677C96.086 84.334 89.754 98.749 83.127 117M0 0h84.124c-3.514 2.699-6.431 4.723-9.052 7.14-8.666 8.005-13.873 18.097-17.683 29.011a4.14 4.14 0 0 1-4.828 3.205c-3.823-.274-18.975-.618-22.095-.063-.86.187-1.759.08-2.551-.302-.352-.2-.653-.48-.879-.816C18.181 25.588 9.256 13.051 0 0"/><path fill="#14D80F" d="M111.416 89.865c-1.603 0-2.643-.26-1.884-2.15 2.959-7.359 5.89-14.703 11.449-20.67 11.111-11.947 25.082-15.461 40.761-14.217 2.024.154 1.877 1.25 1.272 2.656q-6.845 15.897-13.655 31.809c-.829 1.932-2.017 2.81-4.287 2.768-5.496-.168-27.936-.246-33.656-.196"/></svg>