<svg xmlns="http://www.w3.org/2000/svg" width="103" height="27" fill="none"><g fill="#A3A3A3" clip-path="url(#a)"><path fill-rule="evenodd" d="M15.781 5.761a7.1 7.1 0 0 0-5.001 2.062 7.04 7.04 0 0 0-2.065 4.672.52.52 0 0 1-.282.443l-2.28 1.134a.48.48 0 0 0-.268.444 7 7 0 0 0 2.065 4.671 7.08 7.08 0 0 0 5.002 2.062 7.1 7.1 0 0 0 5.002-2.062 7.04 7.04 0 0 0 2.065-4.671.52.52 0 0 1 .281-.444l2.28-1.134a.48.48 0 0 0 .268-.443 7 7 0 0 0-2.065-4.672 7.08 7.08 0 0 0-5.002-2.062m3.268 5.693c.138.333.224.684.256 1.041a.46.46 0 0 1-.262.443l-2.28 1.134a.54.54 0 0 0-.288.444 3.5 3.5 0 0 1-1.022 2.182 3.54 3.54 0 0 1-2.501 1.031 3.55 3.55 0 0 1-2.5-1.03 3.52 3.52 0 0 1-1.023-2.184.46.46 0 0 1 .261-.443l2.28-1.134a.54.54 0 0 0 .288-.443 3.5 3.5 0 0 1 1.023-2.183 3.54 3.54 0 0 1 2.5-1.03 3.55 3.55 0 0 1 2.501 1.03c.329.327.59.715.767 1.142" clip-rule="evenodd"/><path fill-rule="evenodd" d="M15.78.13c-1.671 0-3.327.327-4.872.964a12.7 12.7 0 0 0-4.13 2.747 12.7 12.7 0 0 0-2.76 4.111 12.6 12.6 0 0 0-.966 4.543.51.51 0 0 1-.278.443l-2.28 1.135a.48.48 0 0 0-.271.443c.038 1.56.365 3.1.965 4.543a12.7 12.7 0 0 0 2.76 4.111 12.7 12.7 0 0 0 4.13 2.747 12.79 12.79 0 0 0 9.746 0 12.7 12.7 0 0 0 4.13-2.747 12.7 12.7 0 0 0 2.76-4.111c.601-1.443.928-2.983.966-4.543a.51.51 0 0 1 .278-.443l2.28-1.135a.48.48 0 0 0 .271-.443 12.6 12.6 0 0 0-.965-4.543 12.7 12.7 0 0 0-2.76-4.111 12.7 12.7 0 0 0-4.13-2.747A12.8 12.8 0 0 0 15.78.129m6.362 14.386a.51.51 0 0 1 .28-.443l2.28-1.135a.48.48 0 0 0 .27-.443 9.12 9.12 0 0 0-2.689-6.165 9.233 9.233 0 0 0-13.004 0 9.15 9.15 0 0 0-2.689 6.165.51.51 0 0 1-.28.443l-2.28 1.135a.48.48 0 0 0-.269.443 9.12 9.12 0 0 0 2.688 6.165 9.234 9.234 0 0 0 13.004 0 9.15 9.15 0 0 0 2.689-6.165" clip-rule="evenodd"/><path d="M66.205 4.297q-.566 0-.957-.39-.39-.39-.39-.947 0-.572.39-.955.39-.39.957-.39.565 0 .949.39.39.384.39.955 0 .557-.39.947-.383.39-.95.39M65.094 12.651V5.155H67.3v7.496z"/><path fill-rule="evenodd" d="M68.543 14.857V5.155h2.094V5.9h.027q.199-.195.427-.355a2.9 2.9 0 0 1 1.703-.516q.844 0 1.612.44.775.438 1.257 1.302t.468 2.153q.007.975-.272 1.7a3.4 3.4 0 0 1-.755 1.19 3.18 3.18 0 0 1-2.247.948q-.949 0-1.704-.53a4 4 0 0 1-.36-.292h-.044V13.6zm3.797-3.934q.489-.007.859-.258.37-.25.58-.71.208-.46.202-1.073.007-.627-.21-1.073a1.55 1.55 0 0 0-1.473-.927 1.5 1.5 0 0 0-.837.23 1.63 1.63 0 0 0-.587.69q-.216.446-.216 1.08 0 .613.216 1.073.225.46.6.71.378.252.866.258" clip-rule="evenodd"/><path d="M79.539 12.762q-.67 0-1.285-.23a3.4 3.4 0 0 1-1.075-.648 2.8 2.8 0 0 1-.704-.989l1.73-.76q.175.33.524.62.35.293.824.293.251 0 .44-.083a.8.8 0 0 0 .293-.23.456.456 0 0 0-.049-.648 1.4 1.4 0 0 0-.412-.25 5 5 0 0 0-.53-.182l-.503-.14a4.6 4.6 0 0 1-1.005-.438 2.4 2.4 0 0 1-.761-.725q-.293-.439-.293-1.066 0-.661.342-1.163.35-.51.942-.794.6-.285 1.368-.286.956 0 1.718.439.767.439 1.089 1.163l-1.697.732a1.7 1.7 0 0 0-.39-.432q-.252-.21-.643-.209-.328 0-.544.167a.51.51 0 0 0-.217.418q0 .25.217.404.216.153.551.265.335.111.698.216.28.076.65.223.37.139.718.383.357.245.587.627.237.384.237.94 0 .704-.39 1.248a2.57 2.57 0 0 1-1.027.836q-.635.3-1.403.3M91.326 12.65V5.156h2.101v.954h.039q.246-.341.555-.578.627-.488 1.486-.488.713 0 1.208.348.383.26.623.697h.04a2.55 2.55 0 0 1 .866-.71 3.16 3.16 0 0 1 1.445-.335q.747 0 1.228.265.482.258.754.683.273.417.384.92.112.494.112.96v4.78h-2.22V8.143q0-.612-.258-.94-.252-.335-.74-.335-.321 0-.573.147a1 1 0 0 0-.39.425q-.14.285-.14.703v4.508H95.64V8.143q0-.612-.258-.94-.258-.335-.747-.335-.475 0-.789.328-.314.32-.314.961v4.494zM84.519 12.435q.635.327 1.41.327.915 0 1.62-.446.356-.229.648-.522h.057q.1.228.293.404.383.348 1.214.564l.782-1.839q-.363-.133-.482-.313-.118-.181-.118-.586v-4.87h-2.206v4.417q0 .411-.16.711a1.1 1.1 0 0 1-.434.453q-.272.16-.635.16-.488 0-.83-.334-.335-.342-.335-.99V5.155h-2.206v4.71q0 .945.37 1.595.376.64 1.012.975"/><path fill-rule="evenodd" d="M60.318 12.762a4 4 0 0 1-1.975-.495 3.8 3.8 0 0 1-1.417-1.365q-.525-.871-.524-2.006 0-1.136.524-2.007a3.75 3.75 0 0 1 1.417-1.358 4.06 4.06 0 0 1 1.975-.488q1.104 0 1.99.488a3.64 3.64 0 0 1 1.403 1.358q.523.87.523 2.007 0 1.135-.523 2.006a3.7 3.7 0 0 1-1.41 1.366q-.886.495-1.983.494m0-1.88q.517 0 .929-.252.41-.251.649-.696.237-.447.237-1.038 0-.571-.23-1.018a1.74 1.74 0 0 0-.635-.696 1.7 1.7 0 0 0-.936-.258 1.8 1.8 0 0 0-.942.25q-.412.245-.65.69-.236.446-.237 1.032 0 .591.238 1.038.244.446.656.696t.921.251M51.59 15.688a6 6 0 0 1-1.717-.23q-.775-.222-1.221-.46l.726-1.727q.39.237.907.404a3.3 3.3 0 0 0 1.061.174q.46 0 .956-.153t.845-.488q.35-.327.35-.864v-.724h-.034a3.6 3.6 0 0 1-.442.369 2.9 2.9 0 0 1-1.703.522q-.593 0-1.18-.222a3.3 3.3 0 0 1-1.068-.69 3.4 3.4 0 0 1-.76-1.164q-.287-.696-.287-1.637 0-1.254.489-2.083.495-.836 1.27-1.254a3.3 3.3 0 0 1 1.613-.425q.97 0 1.696.495.233.157.433.348h.042v-.731h2.003v7.07q0 .858-.293 1.506a2.96 2.96 0 0 1-.83 1.086q-.531.44-1.257.655a5.4 5.4 0 0 1-1.599.223m.272-4.967q.503 0 .887-.25.384-.252.607-.697.224-.452.224-1.046 0-.598-.217-1.024a1.6 1.6 0 0 0-.593-.661 1.64 1.64 0 0 0-.873-.23q-.495 0-.886.237-.39.23-.614.661a2.25 2.25 0 0 0-.217 1.017q0 .585.217 1.039.216.445.593.703.377.25.872.251M43.547 12.762a4 4 0 0 1-1.976-.494 3.8 3.8 0 0 1-1.417-1.366q-.523-.871-.523-2.006 0-1.136.523-2.007a3.75 3.75 0 0 1 1.417-1.358 4.06 4.06 0 0 1 1.976-.488q1.102 0 1.99.488a3.64 3.64 0 0 1 1.402 1.358q.525.87.524 2.007 0 1.135-.524 2.006a3.7 3.7 0 0 1-1.41 1.366 4 4 0 0 1-1.982.494m0-1.88q.517 0 .928-.252.412-.25.65-.696.236-.447.237-1.038 0-.572-.23-1.017a1.74 1.74 0 0 0-.636-.697 1.7 1.7 0 0 0-.935-.258q-.524 0-.943.25a1.7 1.7 0 0 0-.649.69q-.237.447-.237 1.032 0 .591.237 1.038.245.446.656.696.412.251.922.251" clip-rule="evenodd"/><path d="M33.666 12.65V2.383h2.29v8.235h3.706v2.034z"/><path fill-rule="evenodd" d="M68.548 16.341v2.06h-.063a3 3 0 0 0-.286-.223 2.86 2.86 0 0 0-1.69-.516 3.24 3.24 0 0 0-1.619.44q-.774.438-1.256 1.302-.483.864-.461 2.153-.014.975.265 1.7.28.717.754 1.19a3.18 3.18 0 0 0 2.248.948q.949 0 1.703-.53.377-.267.677-.626h.068q.079.201.24.383.215.23.572.425.363.188.88.348l.774-1.839q-.322-.118-.46-.286-.14-.167-.14-.578v-7.609zm-.726 6.957a1.57 1.57 0 0 1-1.724 0 1.65 1.65 0 0 1-.587-.71 2.6 2.6 0 0 1-.195-1.073q-.007-.627.21-1.073.216-.453.593-.69.383-.243.88-.237.466-.007.837.23t.586.69q.217.445.223 1.08a2.6 2.6 0 0 1-.223 1.073 1.7 1.7 0 0 1-.6.71" clip-rule="evenodd"/><path d="M95.93 25.284v-7.496h2.136v.982h.033q.09-.133.197-.25.39-.42.936-.628a3.1 3.1 0 0 1 1.165-.216q.755 0 1.299.348.544.349.837.955.293.605.293 1.4v4.905h-2.206V20.86q0-.675-.32-1.01-.322-.342-.873-.342-.362 0-.656.16a1.14 1.14 0 0 0-.468.46q-.167.3-.167.753v4.403z"/><path fill-rule="evenodd" d="M91.395 25.396q-1.082 0-1.976-.495a3.8 3.8 0 0 1-1.417-1.366q-.523-.871-.523-2.006 0-1.136.523-2.006a3.75 3.75 0 0 1 1.417-1.36 4.06 4.06 0 0 1 1.976-.487q1.102 0 1.989.488a3.65 3.65 0 0 1 1.403 1.358q.524.871.524 2.007t-.524 2.006a3.7 3.7 0 0 1-1.41 1.366 4 4 0 0 1-1.982.494m0-1.882q.516 0 .928-.25.411-.252.65-.697.236-.446.237-1.038 0-.572-.23-1.017a1.74 1.74 0 0 0-.636-.697 1.7 1.7 0 0 0-.935-.258q-.524 0-.943.251a1.7 1.7 0 0 0-.649.69q-.237.445-.237 1.03 0 .594.237 1.039.245.446.656.697t.922.25" clip-rule="evenodd"/><path d="M84.627 25.284v-7.496h2.206v7.496zM84.78 16.54q.391.39.956.39t.95-.39q.39-.39.39-.947 0-.57-.39-.954a1.28 1.28 0 0 0-.95-.39q-.566 0-.956.39-.391.383-.391.954 0 .558.39.948M80.576 24.629q.677.765 2.066.766.426 0 .838-.076.419-.077.733-.23l-.712-1.735a1.3 1.3 0 0 1-.587.146.85.85 0 0 1-.579-.209q-.23-.216-.23-.696v-2.982h1.738v-1.825h-1.738v-2.16h-2.206v2.16h-1.256v1.825h1.256v3.037q0 1.206.677 1.979"/><path fill-rule="evenodd" d="M72.872 25.089q.58.306 1.34.306.88 0 1.55-.348.541-.278.793-.62h.034q.097.167.262.334.327.335.977.55l.258.084.775-1.839-.167-.056a.54.54 0 0 1-.342-.271q-.091-.203-.091-.585v-2.258q0-.405-.098-.87-.09-.474-.39-.885-.301-.418-.922-.683-.622-.272-1.675-.272-.677 0-1.271.112-.586.105-1.047.264a4.5 4.5 0 0 0-.733.32l.733 1.659q.258-.167.614-.293a4.3 4.3 0 0 1 .74-.202q.384-.076.72-.076.293 0 .523.07.23.062.39.188a.76.76 0 0 1 .238.306.9.9 0 0 1 .084.39v.376H74.75q-.977 0-1.676.3-.69.3-1.06.822a2.05 2.05 0 0 0-.364 1.198q0 .642.322 1.157.327.514.9.822m2.143-2.92h1.257v.468q-.001.411-.266.654a1.5 1.5 0 0 1-.614.349q-.356.105-.621.104a1.4 1.4 0 0 1-.517-.09.85.85 0 0 1-.349-.265.7.7 0 0 1-.126-.418q0-.411.315-.606.32-.195.92-.195" clip-rule="evenodd"/><path d="M55.77 25.284v-7.496h2.136v.982h.033q.09-.133.197-.25.39-.419.935-.628a3.1 3.1 0 0 1 1.166-.216q.754 0 1.298.349.545.348.838.954.294.605.293 1.4v4.905H60.46V20.86q0-.675-.32-1.01-.322-.341-.873-.341-.362 0-.656.16a1.14 1.14 0 0 0-.468.46q-.168.3-.168.752v4.403zM50.58 25.395q-.775 0-1.411-.327a2.5 2.5 0 0 1-1.012-.976q-.37-.647-.37-1.595v-4.71h2.206v4.418q0 .648.335.989.342.334.83.334.363 0 .636-.16.279-.16.433-.453.16-.3.16-.71v-4.417h2.206v4.87q0 .403.119.585.119.18.481.313l-.782 1.84q-.83-.217-1.214-.565a1.2 1.2 0 0 1-.293-.404h-.056q-.292.293-.65.523-.705.445-1.619.445"/><path fill-rule="evenodd" d="M43.301 25.396q-1.082 0-1.976-.495a3.8 3.8 0 0 1-1.417-1.366q-.523-.871-.523-2.006 0-1.136.523-2.006a3.75 3.75 0 0 1 1.417-1.36 4.06 4.06 0 0 1 1.976-.487q1.102 0 1.99.488.886.488 1.402 1.358.525.871.524 2.007 0 1.136-.524 2.006a3.7 3.7 0 0 1-1.41 1.366 4 4 0 0 1-1.982.494m0-1.882q.517 0 .928-.25.412-.252.65-.697.237-.446.237-1.038 0-.572-.23-1.017a1.74 1.74 0 0 0-.636-.697 1.7 1.7 0 0 0-.935-.258q-.524 0-.942.251-.412.244-.65.69-.237.445-.237 1.03 0 .594.237 1.039.244.446.657.697.411.25.921.25" clip-rule="evenodd"/><path d="M33.65 25.284v-10.27h5.997v2.035H35.94v2.362h3.085v2.034H35.94v3.839zM28.51 12.515H24.97a.48.48 0 0 1-.27.423l-2.28 1.135a.51.51 0 0 0-.278.424h3.537a.51.51 0 0 1 .278-.424l2.28-1.135a.49.49 0 0 0 .271-.423M.223 14.497H3.76a.48.48 0 0 1 .27-.424l2.28-1.135a.51.51 0 0 0 .278-.423H3.051a.51.51 0 0 1-.277.423l-2.28 1.135a.49.49 0 0 0-.271.424M8.713 12.515a.52.52 0 0 1-.28.423l-2.28 1.135a.48.48 0 0 0-.268.424h3.542a.46.46 0 0 1 .263-.424l2.28-1.135a.54.54 0 0 0 .286-.423zM19.303 12.515c.008.18-.1.342-.262.423l-2.28 1.135a.54.54 0 0 0-.286.424h3.542a.52.52 0 0 1 .28-.424l2.28-1.135a.48.48 0 0 0 .269-.423z"/></g><defs><clipPath id="a"><path fill="#fff" d="M0 0h103v27H0z"/></clipPath></defs></svg>