<svg xmlns="http://www.w3.org/2000/svg" width="144" height="27" fill="none"><g fill="#A3A3A3" clip-path="url(#a)"><path d="M34.707 1.147h3.595v19.61h5.916v3.269h-9.511zM51.013 24.353q-2.647 0-4.053-1.504-1.405-1.503-1.405-4.249V6.573q0-2.745 1.405-4.25Q48.365.82 51.013.82t4.053 1.504 1.405 4.249V18.6q0 2.745-1.405 4.25-1.405 1.502-4.053 1.502m0-3.269q1.863 0 1.863-2.255V6.344q0-2.255-1.863-2.255T49.15 6.344v12.485q0 2.255 1.863 2.255M64 24.353q-2.614 0-3.987-1.471-1.372-1.504-1.372-4.282V6.573q0-2.778 1.372-4.25Q61.387.822 64.001.82t3.987 1.504q1.373 1.47 1.373 4.249v1.96h-3.4v-2.19q0-2.254-1.862-2.254t-1.863 2.255v12.518q0 2.222 1.863 2.222t1.863-2.222v-4.478h-1.798v-3.268h5.197V18.6q0 2.779-1.373 4.282-1.373 1.47-3.987 1.47M76.866 24.353q-2.647 0-4.052-1.504-1.406-1.503-1.406-4.249V6.573q0-2.745 1.406-4.25Q74.219.822 76.866.82t4.053 1.504q1.406 1.503 1.406 4.249V18.6q0 2.745-1.406 4.25-1.406 1.502-4.053 1.503m0-3.269q1.863 0 1.863-2.255V6.344q0-2.255-1.863-2.255t-1.863 2.255v12.485q0 2.255 1.863 2.255M84.762 1.147h3.595v22.879h-3.595zM91.05 1.147h5.296q2.679 0 4.02 1.438t1.34 4.216v2.255q0 2.779-1.34 4.217t-4.02 1.438h-1.7v9.315h-3.595zm5.296 10.295q.882 0 1.307-.49.457-.49.457-1.667V6.572q0-1.176-.457-1.666-.424-.49-1.308-.49h-1.699v7.026zM108.459 24.353q-2.614 0-3.955-1.471-1.34-1.504-1.34-4.282v-1.307h3.399v1.569q0 2.222 1.863 2.222.916 0 1.373-.523.49-.556.49-1.765 0-1.437-.653-2.516-.654-1.112-2.419-2.648-2.223-1.96-3.105-3.53-.882-1.601-.882-3.595 0-2.712 1.372-4.183Q105.976.82 108.59.82q2.582 0 3.889 1.504 1.34 1.47 1.34 4.249v.947h-3.399V6.344q0-1.177-.457-1.7-.458-.555-1.34-.555-1.798 0-1.798 2.19 0 1.241.654 2.32.686 1.078 2.451 2.615 2.254 1.961 3.105 3.562.85 1.601.85 3.759 0 2.811-1.406 4.314-1.372 1.503-4.02 1.503M121.175 24.352q-2.615 0-3.988-1.47-1.373-1.504-1.373-4.282V1.147h3.596v17.715q0 1.175.457 1.7.49.522 1.373.522.882 0 1.34-.523.49-.523.49-1.7V1.148h3.464V18.6q0 2.779-1.372 4.282-1.373 1.47-3.987 1.47M129.098 1.147h5.131l2.288 16.374h.065l2.289-16.374h5.131v22.879h-3.4V6.703h-.064l-2.616 17.323h-3.007l-2.614-17.323h-.065v17.323h-3.138zM0 24.026A8.009 8.009 0 0 0 0 8.009v5.606a2.403 2.403 0 0 1 0 4.805z"/><path d="M26.695 10.678a14.3 14.3 0 0 0-4.338-.667c-7.925 0-14.35 6.424-14.35 14.348 0 .796.066 1.576.19 2.336h8.915a5.74 5.74 0 0 1 9.582-6.094zM1.408 0c.664 6.006 5.756 10.678 11.94 10.678S24.623 6.006 25.288 0h-8.592A3.605 3.605 0 0 1 10 0z"/></g><defs><clipPath id="a"><path fill="#fff" d="M0 0h144v27H0z"/></clipPath></defs></svg>