<svg xmlns="http://www.w3.org/2000/svg" width="137" height="27" fill="none"><g fill="#A3A3A3" clip-path="url(#a)"><path d="M11.762 1.794 13.564 0l13.564 13.5L13.564 27l-1.802-1.794L23.524 13.5z"/><path d="m9.41 4.135 1.802-1.794L22.424 13.5 11.212 24.659 9.41 22.865l9.41-9.365z"/><path d="m0 13.5 8.86-8.817 8.859 8.817-8.86 8.817-1.802-1.793 7.058-7.024-5.256-5.23-7.057 7.024z"/><path d="M8.86 9.365 7.058 11.16 9.41 13.5l-4.705 4.683 1.802 1.793 6.507-6.476z"/><path d="M4.154 17.635 2.352 15.84l4.135-4.116L8.29 13.52zM131.849 8.666q1.309 0 2.337.542a3.84 3.84 0 0 1 1.633 1.604q.605 1.064.605 2.568v6.52h-2.278V13.72q0-1.485-.746-2.267-.746-.802-2.036-.802t-2.055.802q-.746.782-.746 2.267V19.9h-2.278V13.72q0-1.485-.745-2.267-.746-.802-2.036-.802t-2.056.802q-.746.782-.746 2.267V19.9h-2.298V8.847h2.298v1.263a3.8 3.8 0 0 1 1.431-1.063 4.6 4.6 0 0 1 1.854-.381q1.33 0 2.379.562a3.86 3.86 0 0 1 1.613 1.624q.503-1.002 1.572-1.584a4.6 4.6 0 0 1 2.298-.602M116.078 8.846V19.9h-2.298v-1.304q-.543.681-1.431 1.083a4.55 4.55 0 0 1-1.854.381q-1.31 0-2.358-.542a4 4 0 0 1-1.633-1.604q-.585-1.064-.584-2.568v-6.5h2.277v6.159q0 1.485.746 2.287.746.782 2.036.782t2.036-.782q.765-.803.765-2.287V8.846zM99.991 20.08q-1.31 0-2.358-.461-1.029-.482-1.632-1.284a3.23 3.23 0 0 1-.645-1.825h2.378q.06.702.665 1.183.624.462 1.552.461.968 0 1.491-.36.544-.383.544-.963 0-.623-.604-.923-.584-.3-1.875-.662-1.25-.341-2.035-.662A3.66 3.66 0 0 1 96.1 13.6q-.564-.662-.564-1.745 0-.883.524-1.605.524-.742 1.491-1.164.987-.42 2.258-.421 1.894 0 3.043.963 1.169.943 1.25 2.588h-2.298q-.06-.743-.605-1.184t-1.47-.441q-.908 0-1.392.34-.483.343-.483.903 0 .442.322.743.323.3.786.481.464.16 1.371.422 1.21.32 1.975.661.786.321 1.351.963.564.642.584 1.706 0 .942-.524 1.685-.524.741-1.491 1.163-.948.42-2.238.421M85.304 10.471q.584-.762 1.592-1.283 1.007-.522 2.278-.522 1.45 0 2.64.722a4.9 4.9 0 0 1 1.895 1.986q.684 1.284.685 2.949 0 1.665-.685 2.989a5.17 5.17 0 0 1-1.895 2.046 5 5 0 0 1-2.64.722q-1.27 0-2.258-.501-.988-.522-1.612-1.284v6.86h-2.298V8.848h2.298zm6.752 3.852q0-1.143-.484-1.966-.463-.843-1.25-1.264a3.26 3.26 0 0 0-1.652-.441q-.867 0-1.653.441-.765.441-1.25 1.284-.463.843-.463 1.986t.463 2.006q.485.843 1.25 1.284a3.33 3.33 0 0 0 1.653.441q.887 0 1.653-.441.786-.462 1.249-1.324.484-.863.484-2.006M79.563 7.382q-.625 0-1.048-.421a1.41 1.41 0 0 1-.423-1.044q0-.621.423-1.043.423-.42 1.048-.42.605 0 1.028.42.423.422.423 1.043 0 .622-.423 1.044-.423.42-1.028.42m1.129 1.464V19.9h-2.298V8.846zM71.065 20.08q-1.572 0-2.842-.702a5.2 5.2 0 0 1-1.995-2.006q-.726-1.304-.726-3.009 0-1.685.746-2.989a5.14 5.14 0 0 1 2.035-2.006q1.29-.702 2.883-.702t2.882.702a5.14 5.14 0 0 1 2.036 2.006q.746 1.304.746 2.99 0 1.684-.766 2.988a5.35 5.35 0 0 1-2.096 2.026q-1.31.702-2.903.702m0-1.986q.886 0 1.653-.42.786-.422 1.27-1.265.483-.841.483-2.046 0-1.203-.464-2.026-.462-.843-1.23-1.264a3.4 3.4 0 0 0-1.652-.421q-.886 0-1.652.421-.747.421-1.19 1.264-.443.823-.443 2.026 0 1.785.907 2.768.927.963 2.318.963M58.917 20.08q-1.573 0-2.843-.702a5.2 5.2 0 0 1-1.995-2.006q-.726-1.304-.726-3.009.001-1.685.746-2.989a5.14 5.14 0 0 1 2.036-2.006q1.29-.702 2.882-.702t2.883.702a5.14 5.14 0 0 1 2.035 2.006q.746 1.304.746 2.99 0 1.684-.766 2.988a5.34 5.34 0 0 1-2.096 2.026q-1.309.702-2.903.702m0-1.986q.886 0 1.652-.42.786-.422 1.27-1.265.484-.841.484-2.046 0-1.203-.464-2.026-.463-.843-1.23-1.264a3.4 3.4 0 0 0-1.652-.421q-.887 0-1.653.421-.745.421-1.189 1.264-.444.823-.443 2.026 0 1.785.907 2.768.927.963 2.318.963M46.768 20.08q-1.572 0-2.842-.702a5.2 5.2 0 0 1-1.995-2.006q-.726-1.304-.726-3.009 0-1.685.746-2.989a5.14 5.14 0 0 1 2.036-2.006q1.29-.702 2.882-.702t2.882.702a5.14 5.14 0 0 1 2.036 2.006q.746 1.304.746 2.99 0 1.684-.766 2.988a5.35 5.35 0 0 1-2.096 2.026q-1.31.702-2.903.702m0-1.986q.886 0 1.653-.42.786-.422 1.27-1.265.483-.841.483-2.046 0-1.203-.463-2.026-.464-.843-1.23-1.264a3.4 3.4 0 0 0-1.652-.421q-.888 0-1.653.421-.746.421-1.19 1.264-.443.823-.443 2.026 0 1.785.907 2.768.927.963 2.318.963M35.999 18.054h4.737V19.9H33.7V5.958H36z"/><path fill-rule="evenodd" d="M61.035 21.954a3.3 3.3 0 0 0 1.187-1.768l2.22.592a5.6 5.6 0 0 1-2.007 2.991 5.64 5.64 0 0 1-6.846 0 5.6 5.6 0 0 1-2.009-2.991l2.221-.592c.19.703.607 1.324 1.187 1.768a3.334 3.334 0 0 0 4.047 0" clip-rule="evenodd"/></g><defs><clipPath id="a"><path fill="#fff" d="M0 0h137v27H0z"/></clipPath></defs></svg>