<svg xmlns="http://www.w3.org/2000/svg" width="172" height="27" fill="none"><g fill="#A3A3A3" clip-path="url(#a)"><path d="M24 1.039a3.12 3.12 0 0 1 2.248-.967h10.885c7.078 0 10.622 8.885 5.617 14.08L31.848 25.472c-.5.52-1.356.151-1.356-.583v-9.969l1.26-1.308c1-1.04.292-2.816-1.124-2.816H14.602z"/><path d="M21.094 24.676a3.12 3.12 0 0 1-2.248.966H7.96c-7.079 0-10.623-8.884-5.618-14.08L13.245.242c.5-.52 1.357-.151 1.357.583v9.969l-1.26 1.308c-1.001 1.04-.292 2.816 1.123 2.816h16.027zM108.322 8.64v12.854h3.783V8.64zM108.587 6.502q.67.668 1.64.668t1.628-.668q.67-.67.67-1.625 0-.98-.67-1.637-.659-.669-1.628-.669-.97 0-1.64.67-.67.656-.671 1.636 0 .956.671 1.625"/><path fill-rule="evenodd" d="M114.24 26.51V8.64h3.592v1.278h.047q.338-.333.731-.61 1.269-.883 2.921-.883 1.448 0 2.765.752 1.329.753 2.155 2.234.825 1.482.802 3.691.012 1.674-.467 2.915-.48 1.23-1.293 2.043a5.4 5.4 0 0 1-1.82 1.219q-1.005.406-2.035.406-1.628 0-2.921-.908a6 6 0 0 1-.616-.502h-.078v6.236zm6.512-7.979q.838-.012 1.473-.442t.993-1.218q.36-.79.348-1.84.012-1.075-.359-1.84-.36-.776-1.018-1.183a2.7 2.7 0 0 0-1.508-.406 2.54 2.54 0 0 0-1.437.395q-.635.406-1.005 1.182-.371.765-.371 1.852 0 1.05.371 1.84.382.787 1.029 1.218a2.7 2.7 0 0 0 1.484.442" clip-rule="evenodd"/><path d="M130.895 21.29a6.2 6.2 0 0 0 2.202.395q1.317 0 2.406-.514 1.102-.513 1.76-1.433.67-.932.67-2.139 0-.955-.406-1.612a3.4 3.4 0 0 0-1.006-1.075 5.6 5.6 0 0 0-1.233-.658 11 11 0 0 0-1.114-.382q-.622-.18-1.197-.37a3.6 3.6 0 0 1-.945-.454.81.81 0 0 1-.371-.693q0-.43.371-.717.37-.286.934-.286.669 0 1.101.358.442.359.67.74l2.909-1.254q-.551-1.242-1.867-1.995-1.305-.752-2.945-.752-1.317 0-2.346.49a4.05 4.05 0 0 0-1.617 1.361q-.586.861-.586 1.995 0 1.075.502 1.828.504.753 1.306 1.243.814.477 1.723.752.396.107.862.239.479.132.91.31.43.18.706.43a.78.78 0 0 1 .084 1.112q-.18.238-.503.394a1.84 1.84 0 0 1-.754.143 2.13 2.13 0 0 1-1.413-.502q-.598-.5-.897-1.063l-2.969 1.302q.407.967 1.209 1.697a5.8 5.8 0 0 0 1.844 1.11M153.309 21.494V8.64h3.603v1.636h.065q.423-.585.952-.991 1.078-.836 2.55-.836 1.22 0 2.071.597.655.445 1.069 1.195h.068a4.4 4.4 0 0 1 1.484-1.219 5.4 5.4 0 0 1 2.479-.573q1.28 0 2.106.454.826.442 1.293 1.17a4.8 4.8 0 0 1 .658 1.577q.193.848.192 1.649v8.195h-3.807v-7.73q0-1.05-.442-1.612-.432-.573-1.269-.573-.552 0-.982.25-.419.24-.67.73-.24.489-.24 1.206v7.729h-3.782v-7.73q0-1.05-.444-1.612-.443-.573-1.28-.573-.815 0-1.353.561-.539.55-.539 1.649v7.705zM144.052 21.685q-1.329 0-2.418-.561a4.3 4.3 0 0 1-1.736-1.673q-.633-1.11-.634-2.735V8.64h3.782v7.574q0 1.11.575 1.696.587.574 1.425.574.623 0 1.089-.275.479-.274.742-.777.275-.513.275-1.218V8.64h3.783v8.35q0 .693.204 1.004.204.31.826.537l-1.341 3.154q-1.424-.371-2.083-.967a2 2 0 0 1-.502-.693h-.096a6.6 6.6 0 0 1-1.113.896q-1.21.764-2.778.764"/><path fill-rule="evenodd" d="M100.132 21.685q-1.857 0-3.388-.848a6.5 6.5 0 0 1-2.43-2.342q-.899-1.493-.898-3.44 0-1.947.897-3.44a6.43 6.43 0 0 1 2.43-2.33q1.532-.836 3.389-.836 1.89 0 3.411.836a6.25 6.25 0 0 1 2.406 2.33q.898 1.493.898 3.44t-.898 3.44a6.3 6.3 0 0 1-2.418 2.342q-1.52.848-3.399.848m0-3.226q.885 0 1.592-.43.706-.429 1.113-1.194t.407-1.78q0-.98-.395-1.744a3 3 0 0 0-1.089-1.195q-.695-.441-1.604-.442-.899 0-1.617.43-.706.418-1.113 1.183t-.407 1.768q0 1.015.407 1.78.42.765 1.126 1.194.705.43 1.58.43M82.22 26.308q1.34.394 2.944.394 1.497 0 2.742-.382 1.245-.37 2.154-1.123a5.1 5.1 0 0 0 1.425-1.863q.502-1.112.502-2.58V8.627h-3.435v1.254h-.072a5.6 5.6 0 0 0-.742-.597q-1.245-.848-2.909-.848-1.437 0-2.765.729-1.329.717-2.179 2.15-.838 1.422-.838 3.572 0 1.612.49 2.807.492 1.195 1.306 1.995.825.789 1.831 1.183 1.006.382 2.023.382 1.64 0 2.921-.896a6 6 0 0 0 .757-.633h.057v1.242q0 .92-.598 1.482a3.6 3.6 0 0 1-1.449.836 5.6 5.6 0 0 1-1.64.263q-.921 0-1.82-.299a7.4 7.4 0 0 1-1.555-.693l-1.245 2.963q.766.405 2.094.788m4.932-8.553q-.66.43-1.52.43-.851 0-1.497-.43a3 3 0 0 1-1.017-1.207q-.372-.775-.372-1.78 0-1.003.372-1.744a2.74 2.74 0 0 1 1.053-1.135q.67-.405 1.52-.406.85 0 1.497.394.646.394 1.017 1.135.37.729.37 1.756 0 1.016-.382 1.792-.384.765-1.041 1.195M71.37 21.685q-1.855 0-3.388-.848a6.5 6.5 0 0 1-2.43-2.342q-.897-1.493-.898-3.44 0-1.947.898-3.44a6.43 6.43 0 0 1 2.43-2.33q1.533-.836 3.388-.836 1.89 0 3.412.836a6.26 6.26 0 0 1 2.406 2.33q.897 1.493.898 3.44 0 1.947-.898 3.44a6.3 6.3 0 0 1-2.419 2.342q-1.52.848-3.399.848m0-3.226q.885 0 1.592-.43.706-.429 1.114-1.194.405-.765.406-1.78 0-.98-.395-1.744a3 3 0 0 0-1.09-1.195q-.694-.441-1.603-.442-.898 0-1.616.43-.706.418-1.114 1.183-.406.765-.407 1.768 0 1.015.407 1.78.42.765 1.126 1.194.705.43 1.58.43" clip-rule="evenodd"/><path d="M54.428 3.886v17.608H64.71v-3.488h-6.357V3.886z"/></g><defs><clipPath id="a"><path fill="#fff" d="M0 0h172v27H0z"/></clipPath></defs></svg>